<svg width="120" height="32" viewBox="0 0 120 32" fill="none" xmlns="http://www.w3.org/2000/svg">
<g clip-path="url(#clip0)">
<rect width="120" height="32" fill="white"/>
<path d="M7.54 20.884C7.588 20.296 7.858 19.804 8.35 19.408C9.598 20.224 10.804 20.632 11.968 20.632C12.676 20.632 13.234 20.476 13.642 20.164C14.062 19.852 14.272 19.444 14.272 18.94C14.272 18.112 13.726 17.464 12.634 16.996L10.51 16.078C8.866 15.37 8.044 14.332 8.044 12.964C8.044 12.472 8.146 12.016 8.35 11.596C8.554 11.164 8.836 10.786 9.196 10.462C9.556 10.138 9.988 9.892 10.492 9.724C11.008 9.556 11.572 9.472 12.184 9.472C13.444 9.472 14.692 9.784 15.928 10.408C15.916 10.984 15.682 11.482 15.226 11.902C14.074 11.338 13.048 11.056 12.148 11.056C11.5 11.056 10.978 11.218 10.582 11.542C10.186 11.854 9.988 12.226 9.988 12.658C9.988 13.102 10.108 13.45 10.348 13.702C10.6 13.942 10.978 14.164 11.482 14.368L13.57 15.268C14.47 15.652 15.142 16.12 15.586 16.672C16.042 17.212 16.27 17.86 16.27 18.616C16.27 19.696 15.892 20.572 15.136 21.244C14.392 21.904 13.258 22.234 11.734 22.234C10.21 22.234 8.812 21.784 7.54 20.884ZM20.512 14.656V22C20.284 22.048 19.972 22.072 19.576 22.072C19.192 22.072 18.886 22.048 18.658 22V15.412C18.658 15.076 18.598 14.836 18.478 14.692C18.358 14.548 18.154 14.476 17.866 14.476H17.668C17.608 14.212 17.578 13.99 17.578 13.81C17.578 13.63 17.608 13.402 17.668 13.126C18.064 13.078 18.442 13.054 18.802 13.054H19.054C19.51 13.054 19.864 13.198 20.116 13.486C20.38 13.774 20.512 14.164 20.512 14.656ZM18.262 11.434C18.154 11.218 18.1 10.954 18.1 10.642C18.1 10.15 18.19 9.862 18.37 9.778C18.55 9.682 18.85 9.628 19.27 9.616C19.75 9.628 20.056 9.688 20.188 9.796C20.32 9.904 20.392 10.186 20.404 10.642C20.392 11.074 20.32 11.35 20.188 11.47C20.056 11.59 19.75 11.656 19.27 11.668C18.802 11.668 18.466 11.59 18.262 11.434ZM28.1707 16.366C28.1707 15.754 28.0807 15.316 27.9007 15.052C27.7327 14.776 27.4627 14.638 27.0907 14.638C26.4427 14.638 25.7947 15.004 25.1467 15.736V22C24.9427 22.048 24.6367 22.072 24.2287 22.072C24.0367 22.072 23.8627 22.066 23.7067 22.054C23.5507 22.042 23.4127 22.024 23.2927 22V13.162L23.4007 13.036H24.1027C24.7507 13.036 25.0927 13.414 25.1287 14.17C25.9807 13.354 26.8627 12.946 27.7747 12.946C28.6987 12.946 29.3527 13.39 29.7367 14.278C30.7207 13.39 31.6747 12.946 32.5987 12.946C33.3547 12.946 33.9307 13.21 34.3267 13.738C34.7227 14.266 34.9207 14.944 34.9207 15.772V20.092C34.9207 20.836 35.0167 21.382 35.2087 21.73C34.8727 21.994 34.4827 22.126 34.0387 22.126C33.3787 22.126 33.0487 21.73 33.0487 20.938V16.348C33.0487 15.736 32.9587 15.298 32.7787 15.034C32.6107 14.77 32.3407 14.638 31.9687 14.638C31.3207 14.638 30.6727 15.004 30.0247 15.736V22C29.9047 22.024 29.7607 22.042 29.5927 22.054C29.4367 22.066 29.2687 22.072 29.0887 22.072C28.9207 22.072 28.7527 22.066 28.5847 22.054C28.4167 22.042 28.2787 22.024 28.1707 22V16.366ZM41.5244 22.162C40.8524 22.162 40.1684 21.964 39.4724 21.568V24.682C39.4724 25.102 39.3944 25.402 39.2384 25.582C39.0944 25.774 38.8364 25.87 38.4644 25.87H37.7444L37.6364 25.762V13.144L37.7444 13.036H38.3204C38.9204 13.036 39.2864 13.342 39.4184 13.954C40.1144 13.234 40.9484 12.874 41.9204 12.874C42.4004 12.874 42.8324 12.982 43.2164 13.198C43.6004 13.414 43.9184 13.726 44.1704 14.134C44.4344 14.542 44.6324 15.034 44.7644 15.61C44.9084 16.174 44.9804 16.816 44.9804 17.536C44.9804 18.256 44.8904 18.904 44.7104 19.48C44.5304 20.056 44.2784 20.542 43.9544 20.938C43.6424 21.334 43.2764 21.64 42.8564 21.856C42.4364 22.06 41.9924 22.162 41.5244 22.162ZM41.4524 14.44C40.6724 14.44 40.0124 14.83 39.4724 15.61V20.02C39.7844 20.224 40.0844 20.386 40.3724 20.506C40.6724 20.614 40.9544 20.668 41.2184 20.668C41.7824 20.668 42.2324 20.392 42.5684 19.84C42.9164 19.288 43.0904 18.502 43.0904 17.482C43.0904 16.438 42.9344 15.67 42.6224 15.178C42.3104 14.686 41.9204 14.44 41.4524 14.44ZM49.6833 20.614H50.3493C50.4573 20.914 50.5113 21.178 50.5113 21.406C50.5113 21.634 50.4933 21.814 50.4573 21.946C49.9773 22.03 49.4673 22.072 48.9273 22.072C47.7393 22.072 47.1453 21.454 47.1453 20.218V8.878L47.2713 8.77H47.9733C48.3453 8.77 48.6033 8.866 48.7473 9.058C48.9033 9.238 48.9813 9.538 48.9813 9.958V19.804C48.9813 20.344 49.2153 20.614 49.6833 20.614ZM58.8846 18.148H53.5926C53.6286 18.976 53.8026 19.612 54.1146 20.056C54.4386 20.5 54.9786 20.722 55.7346 20.722C56.0946 20.722 56.4786 20.668 56.8866 20.56C57.3066 20.452 57.7386 20.278 58.1826 20.038C58.4826 20.314 58.6806 20.71 58.7766 21.226C57.8166 21.898 56.6886 22.234 55.3926 22.234C54.7086 22.234 54.1326 22.114 53.6646 21.874C53.1966 21.634 52.8126 21.304 52.5126 20.884C52.2246 20.464 52.0146 19.966 51.8826 19.39C51.7506 18.802 51.6846 18.172 51.6846 17.5C51.6846 16.84 51.7686 16.228 51.9366 15.664C52.1046 15.088 52.3446 14.596 52.6566 14.188C52.9686 13.78 53.3526 13.462 53.8086 13.234C54.2766 12.994 54.7986 12.874 55.3746 12.874C55.9506 12.874 56.4606 12.97 56.9046 13.162C57.3606 13.354 57.7446 13.624 58.0566 13.972C58.3686 14.308 58.6026 14.716 58.7586 15.196C58.9266 15.664 59.0106 16.174 59.0106 16.726C59.0106 16.966 58.9986 17.206 58.9746 17.446C58.9626 17.674 58.9326 17.908 58.8846 18.148ZM55.4286 14.26C54.2886 14.26 53.6766 15.106 53.5926 16.798H57.2286V16.564C57.2286 15.88 57.0786 15.328 56.7786 14.908C56.4906 14.476 56.0406 14.26 55.4286 14.26ZM65.0406 20.344H68.6226C68.6226 20.608 68.6046 20.86 68.5686 21.1C68.4606 21.712 68.0466 22.018 67.3266 22.018H62.6286C62.2926 22.018 62.0226 21.916 61.8186 21.712C61.6146 21.496 61.5126 21.202 61.5126 20.83V9.742L61.6386 9.634H62.3586C62.7546 9.634 63.0306 9.73 63.1866 9.922C63.3546 10.114 63.4386 10.426 63.4386 10.858V20.416C63.9306 20.368 64.4646 20.344 65.0406 20.344ZM76.1123 21.244C75.4523 21.904 74.5823 22.234 73.5023 22.234C72.8783 22.234 72.3263 22.126 71.8463 21.91C71.3663 21.682 70.9583 21.364 70.6223 20.956C70.2983 20.536 70.0463 20.044 69.8663 19.48C69.6983 18.904 69.6143 18.262 69.6143 17.554C69.6143 16.858 69.6983 16.222 69.8663 15.646C70.0463 15.07 70.2983 14.578 70.6223 14.17C70.9583 13.75 71.3663 13.432 71.8463 13.216C72.3263 12.988 72.8783 12.874 73.5023 12.874C74.1263 12.874 74.6783 12.988 75.1583 13.216C75.6383 13.432 76.0403 13.75 76.3643 14.17C76.7003 14.578 76.9523 15.07 77.1203 15.646C77.3003 16.222 77.3903 16.858 77.3903 17.554C77.3903 19.162 76.9643 20.392 76.1123 21.244ZM73.5023 14.296C72.1943 14.296 71.5403 15.382 71.5403 17.554C71.5403 19.726 72.1943 20.812 73.5023 20.812C74.8223 20.812 75.4823 19.726 75.4823 17.554C75.4823 15.382 74.8223 14.296 73.5023 14.296ZM84.8698 13.81C85.1338 13.39 85.5478 13.114 86.1118 12.982C86.2558 13.078 86.3938 13.222 86.5258 13.414C86.6698 13.606 86.7598 13.78 86.7958 13.936C86.4598 14.26 86.2918 14.83 86.2918 15.646V20.974C86.2918 21.898 86.2138 22.678 86.0578 23.314C85.9138 23.95 85.6858 24.46 85.3738 24.844C85.0618 25.24 84.6658 25.522 84.1858 25.69C83.7058 25.87 83.1298 25.96 82.4578 25.96C81.3898 25.96 80.3518 25.762 79.3438 25.366C79.3558 24.79 79.5178 24.322 79.8298 23.962C80.5858 24.334 81.4018 24.52 82.2778 24.52C83.1298 24.52 83.7118 24.298 84.0238 23.854C84.3358 23.422 84.4918 22.81 84.4918 22.018V21.19C83.7838 21.838 82.9498 22.162 81.9898 22.162C81.0418 22.162 80.2978 21.748 79.7578 20.92C79.2298 20.092 78.9658 18.952 78.9658 17.5C78.9658 16.768 79.0558 16.12 79.2358 15.556C79.4158 14.98 79.6678 14.494 79.9918 14.098C80.3158 13.702 80.6818 13.402 81.0898 13.198C81.5098 12.982 81.9538 12.874 82.4218 12.874C83.3818 12.874 84.1978 13.186 84.8698 13.81ZM84.4918 19.552V15.178C83.8918 14.638 83.3038 14.368 82.7278 14.368C82.1518 14.368 81.6958 14.638 81.3598 15.178C81.0238 15.718 80.8558 16.516 80.8558 17.572C80.8558 18.616 81.0058 19.384 81.3058 19.876C81.6058 20.368 81.9958 20.614 82.4758 20.614C83.2198 20.614 83.8918 20.26 84.4918 19.552ZM91.1409 14.656V22C90.9129 22.048 90.6009 22.072 90.2049 22.072C89.8209 22.072 89.5149 22.048 89.2869 22V15.412C89.2869 15.076 89.2269 14.836 89.1069 14.692C88.9869 14.548 88.7829 14.476 88.4949 14.476H88.2969C88.2369 14.212 88.2069 13.99 88.2069 13.81C88.2069 13.63 88.2369 13.402 88.2969 13.126C88.6929 13.078 89.0709 13.054 89.4309 13.054H89.6829C90.1389 13.054 90.4929 13.198 90.7449 13.486C91.0089 13.774 91.1409 14.164 91.1409 14.656ZM88.8909 11.434C88.7829 11.218 88.7289 10.954 88.7289 10.642C88.7289 10.15 88.8189 9.862 88.9989 9.778C89.1789 9.682 89.4789 9.628 89.8989 9.616C90.3789 9.628 90.6849 9.688 90.8169 9.796C90.9489 9.904 91.0209 10.186 91.0329 10.642C91.0209 11.074 90.9489 11.35 90.8169 11.47C90.6849 11.59 90.3789 11.656 89.8989 11.668C89.4309 11.668 89.0949 11.59 88.8909 11.434ZM101.014 15.898V20.092C101.014 20.8 101.116 21.346 101.32 21.73C101.008 21.994 100.642 22.126 100.222 22.126C99.8136 22.126 99.5316 22.03 99.3756 21.838C99.2316 21.634 99.1596 21.334 99.1596 20.938V16.366C99.1596 15.742 99.0756 15.298 98.9076 15.034C98.7516 14.77 98.4756 14.638 98.0796 14.638C97.6836 14.638 97.2756 14.74 96.8556 14.944C96.4476 15.136 96.0876 15.406 95.7756 15.754V22C95.5716 22.048 95.2656 22.072 94.8576 22.072C94.6656 22.072 94.4916 22.066 94.3356 22.054C94.1796 22.042 94.0416 22.024 93.9216 22V13.144L94.0296 13.036H94.7316C95.3796 13.036 95.7216 13.408 95.7576 14.152C96.6336 13.348 97.5876 12.946 98.6196 12.946C99.4236 12.946 100.024 13.216 100.42 13.756C100.816 14.284 101.014 14.998 101.014 15.898Z" fill="#5675E2"/>
<rect x="99.7782" y="-8" width="50" height="11" transform="rotate(45 99.7782 -8)" fill="#EC1515"/>
<g filter="url(#filter0_d)">
<path d="M104.605 8.47836L103.366 7.21688L103.377 7.13769L107.173 3.34194L107.246 3.33628L108.44 4.49594C108.851 4.907 109.07 5.30298 109.096 5.68388C109.126 6.06854 108.977 6.42492 108.649 6.75302C108.468 6.93404 108.257 7.04718 108.016 7.09243C107.778 7.13392 107.548 7.10752 107.326 7.01324C107.39 7.13769 107.433 7.27534 107.456 7.42619C107.482 7.58081 107.484 7.73354 107.461 7.88439C107.439 8.03524 107.394 8.18232 107.326 8.32563C107.262 8.4727 107.171 8.6047 107.054 8.72161C106.722 9.05347 106.343 9.20998 105.917 9.19112C105.495 9.1685 105.057 8.93091 104.605 8.47836ZM104.367 7.33568L105.057 8.0145C105.197 8.15403 105.333 8.25209 105.465 8.30866C105.597 8.36522 105.721 8.39162 105.838 8.38785C105.959 8.38031 106.07 8.34825 106.172 8.29169C106.281 8.23512 106.383 8.15969 106.477 8.06541C106.56 7.98244 106.626 7.88628 106.675 7.77691C106.732 7.66755 106.76 7.54875 106.76 7.42053C106.764 7.29608 106.735 7.16597 106.675 7.03021C106.619 6.89067 106.522 6.75302 106.387 6.61726L105.736 5.96672L104.367 7.33568ZM107.371 4.33189L106.2 5.50286L106.794 6.09683C106.915 6.21751 107.031 6.30424 107.145 6.35704C107.258 6.40984 107.365 6.43435 107.467 6.43058C107.573 6.43058 107.673 6.40607 107.767 6.35704C107.861 6.30801 107.948 6.2439 108.027 6.16471C108.416 5.77627 108.397 5.36898 107.971 4.94283C107.827 4.79952 107.705 4.67696 107.603 4.57513C107.505 4.47708 107.427 4.396 107.371 4.33189ZM109.976 11.383L108.313 9.71986C108.064 9.99139 107.918 10.246 107.877 10.4835C107.839 10.7249 107.939 10.9644 108.177 11.202C108.29 11.3151 108.428 11.4188 108.59 11.5131C108.756 11.6111 108.946 11.6922 109.161 11.7563C109.169 11.9374 109.106 12.124 108.974 12.3164C108.462 12.2259 108.001 11.9769 107.594 11.5697C107.379 11.3547 107.236 11.136 107.164 10.9135C107.093 10.691 107.076 10.4666 107.113 10.2403C107.155 10.0178 107.245 9.79529 107.385 9.57279C107.528 9.34651 107.705 9.12778 107.917 8.91659C108.124 8.70917 108.343 8.54324 108.573 8.41879C108.807 8.29057 109.037 8.21137 109.263 8.1812C109.489 8.15103 109.71 8.17177 109.925 8.24342C110.147 8.31508 110.349 8.44141 110.53 8.62243C110.711 8.80345 110.841 8.9939 110.92 9.19378C111.003 9.39742 111.039 9.60296 111.028 9.81037C111.02 10.014 110.966 10.2158 110.864 10.4157C110.77 10.6155 110.636 10.8022 110.462 10.9757C110.387 11.0511 110.308 11.1228 110.225 11.1906C110.149 11.2585 110.066 11.3226 109.976 11.383ZM110.111 9.07498C109.753 8.71672 109.295 8.79025 108.737 9.2956L109.88 10.4383L109.953 10.3647C110.168 10.1498 110.294 9.92917 110.332 9.70289C110.377 9.47662 110.304 9.26732 110.111 9.07498ZM113.698 11.926C113.653 12.009 113.589 12.092 113.506 12.1749C113.423 12.2579 113.342 12.3201 113.262 12.3616L112.578 11.6545L110.886 13.3459C110.72 13.5118 110.715 13.6721 110.869 13.8267L111.26 14.2171C111.207 14.3302 111.137 14.4301 111.05 14.5169C110.968 14.5998 110.909 14.6508 110.875 14.6696C110.63 14.4773 110.406 14.2793 110.202 14.0756C109.806 13.6797 109.802 13.2875 110.191 12.899L112.001 11.0888L111.577 10.6759C111.626 10.5967 111.688 10.5194 111.763 10.4439C111.842 10.3647 111.925 10.2969 112.012 10.2403L112.419 10.6702L112.917 10.1724C113.053 10.0366 113.172 9.96311 113.274 9.95179C113.375 9.94048 113.485 9.99328 113.602 10.1102L113.822 10.3308L113.822 10.41L112.985 11.2472L113.698 11.926ZM113.928 17.2356C113.747 17.3261 113.573 17.3525 113.407 17.3148C113.226 17.0508 113.192 16.7831 113.305 16.5115C112.781 16.5002 112.378 16.3531 112.095 16.0703C111.951 15.927 111.848 15.778 111.784 15.6234C111.723 15.4726 111.693 15.3217 111.693 15.1709C111.701 15.02 111.735 14.8767 111.795 14.7409C111.863 14.6052 111.951 14.4826 112.061 14.3732C112.37 14.064 112.702 13.9282 113.056 13.966C113.415 14.0074 113.758 14.1922 114.086 14.5203C114.18 14.6146 114.269 14.7108 114.352 14.8088C114.439 14.9031 114.518 15.0012 114.589 15.103L114.81 14.8824C115.146 14.5467 115.159 14.2243 114.85 13.915C114.635 13.7001 114.267 13.4757 113.747 13.2419C113.732 13.0382 113.816 12.8402 114.001 12.6479C114.559 12.8591 115.036 13.1627 115.432 13.5587C115.726 13.8528 115.875 14.1602 115.879 14.4807C115.887 14.7975 115.732 15.1143 115.415 15.4311L114.256 16.5907C114.022 16.8245 113.913 17.0395 113.928 17.2356ZM112.655 15.7026C112.896 15.944 113.232 16.0533 113.662 16.0307L114.199 15.4933C114.131 15.4103 114.058 15.3255 113.979 15.2387C113.899 15.152 113.814 15.0634 113.724 14.9729C113.55 14.7994 113.371 14.707 113.187 14.6957C113.009 14.6844 112.851 14.7485 112.711 14.888C112.576 15.0238 112.502 15.1652 112.491 15.3123C112.483 15.4556 112.538 15.5857 112.655 15.7026Z" fill="white"/>
</g>
</g>
<defs>
<filter id="filter0_d" x="99.3658" y="3.33627" width="20.5137" height="21.9952" filterUnits="userSpaceOnUse" color-interpolation-filters="sRGB">
<feFlood flood-opacity="0" result="BackgroundImageFix"/>
<feColorMatrix in="SourceAlpha" type="matrix" values="0 0 0 0 0 0 0 0 0 0 0 0 0 0 0 0 0 0 127 0"/>
<feOffset dy="4"/>
<feGaussianBlur stdDeviation="2"/>
<feColorMatrix type="matrix" values="0 0 0 0 0 0 0 0 0 0 0 0 0 0 0 0 0 0 0.25 0"/>
<feBlend mode="normal" in2="BackgroundImageFix" result="effect1_dropShadow"/>
<feBlend mode="normal" in="SourceGraphic" in2="effect1_dropShadow" result="shape"/>
</filter>
<clipPath id="clip0">
<rect width="120" height="32" fill="white"/>
</clipPath>
</defs>
</svg>
